<svg xmlns="http://www.w3.org/2000/svg" width="131.75" height="19.602" viewBox="0 0 131.75 19.602">
  <g id="fastcompany-logo" transform="translate(-4.652 -20.138)">
    <g id="Group_1" data-name="Group 1">
      <path id="Path_1" data-name="Path 1" d="M67.259,25.435c0,2.649-.265,10.861-.265,10.861,0,1.589.53,2.3,2.031,2.3V39.3H63.108v-.707a2.018,2.018,0,0,0,2.3-2.3l.53-13.422a1.994,1.994,0,0,0-2.031-1.5v-.618h4.5l4.769,12.539,4.856-12.539h4.062v.618a1.549,1.549,0,0,0-1.766,1.766l.53,12.98c0,1.943.353,2.473,1.942,2.473V39.3H76v-.707c1.325,0,1.943-.441,1.855-2.473,0,0-.265-9.1-.354-10.684l-3.268,9.007A33.651,33.651,0,0,0,73,38.327l-1.059.089c-.265-.972-.972-2.738-.972-2.738S68.23,28,67.259,25.435Z" fill="#595959" fill-rule="evenodd"/>
      <path id="Path_2" data-name="Path 2" d="M61.7,39.387a4.32,4.32,0,0,0-1.06-.088c-.706,0-1.942.353-3.443.353-5.74,0-9.979-3.443-9.979-9.8,0-5.386,3.974-9.537,10.066-9.537a12.111,12.111,0,0,1,4.327.8c.265-.265.354-.442.618-.707h.53c-.088.971-.441,4.15-.441,4.15h-.53c-.353-1.854-1.325-3.09-4.415-3.09-3.708,0-7.064,2.914-7.064,8.3,0,6.093,3.443,8.742,7.241,8.742a5.439,5.439,0,0,0,4.945-3.179l.618.265-1.413,3.8Z" fill="#595959" fill-rule="evenodd"/>
      <path id="Path_3" data-name="Path 3" d="M45.006,24.2h-.618c-.088-1.678-.618-2.208-1.943-2.208H39.884V35.855c0,2.3.442,2.737,1.942,2.737V39.3H35.2v-.707c1.5,0,1.943-.441,1.943-2.826V21.991H34.585c-1.678,0-1.943.441-2.384,2.208h-.618l.441-3.973.441.087c.176.442.53.442,1.589.442h8.565c1.589,0,1.943,0,2.3-.529h.53L45.006,24.2Z" fill="#595959" fill-rule="evenodd"/>
      <path id="Path_4" data-name="Path 4" d="M26.286,39.74a8.444,8.444,0,0,1-2.914-.441,5.036,5.036,0,0,1-1.5-.619,4.7,4.7,0,0,0-.618.795l-.53-.176.441-4.15.618.088c.353,1.943,1.678,3.356,4.415,3.356a3.581,3.581,0,0,0,3.532-3.708c0-1.59-.618-2.385-2.737-3.974a16.738,16.738,0,0,1-1.854-1.237c-1.943-1.236-3.179-2.649-3.179-4.945,0-2.649,2.207-4.416,5.122-4.416a6.632,6.632,0,0,1,3.09.707l.618-.707.441.089-.441,3.8-.618-.088c0-1.766-1.06-2.561-2.826-2.561-1.678,0-2.914.883-2.914,2.561,0,1.5,1.148,2.473,2.473,3.355.707.441,1.236.8,1.766,1.148,3.091,2.207,3.8,3.62,3.8,5.739,0,3.091-2.384,5.387-6.181,5.387Z" fill="#595959" fill-rule="evenodd"/>
      <path id="Path_5" data-name="Path 5" d="M16.22,24.2h-.707c0-1.589-.707-2.208-2.119-2.208H9.42v6.976h2.561c1.325,0,1.59-.706,1.766-1.854h.618v4.945h-.618c-.176-1.324-.441-1.854-1.854-1.854H9.42V36.12c0,2.208.529,2.473,1.942,2.473V39.3H4.652v-.707c1.678,0,1.942-.441,1.942-2.473V23.14c0-1.236-.529-1.766-1.942-1.766v-.618h9.184c1.589,0,1.942-.088,2.208-.618h.618L16.22,24.2Z" fill="#595959" fill-rule="evenodd"/>
      <path id="Path_6" data-name="Path 6" d="M111.5,25.258v10.6c0,2.3.53,2.737,1.943,2.737V39.3h-10.42v-.707c.795,0,1.5-.265,1.5-.795a6.5,6.5,0,0,0-.265-1.589l-.795-2.561H97.636a28.879,28.879,0,0,0-1.148,4.062c0,.707.794.883,1.324.883V39.3H92.956v-.707c.883,0,1.589-.088,2.207-1.943l4.5-14.394a1.329,1.329,0,0,0-1.236-.883v-.618H102.4l4.769,15.1c.441,1.589.883,2.384,1.589,2.737,1.059-.354,1.324-.707,1.324-2.737V23.139c-.795-1.06-.883-1.766-2.384-1.766v-.618h4.5l7.417,12.627V23.757c0-1.943-.441-2.384-1.942-2.384v-.618h9.89v.618c-.618,0-1.148.265-1.148.883a4.717,4.717,0,0,0,.353,1.413l2.826,6.093,2.738-5.917a3.211,3.211,0,0,0,.529-1.677c0-.53-.353-.8-1.148-.8v-.618h4.68v.618c-1.148,0-1.854,1.06-2.384,2.3l-3.62,7.417v4.856c0,2.12.53,2.649,1.943,2.649V39.3H125.63v-.707c1.413,0,1.943-.53,1.943-2.649v-4.15l-3.885-8.213c-.707-1.589-.972-1.942-1.413-2.207-.883.353-1.147.971-1.147,2.384v13.6s.087,1.06.176,2.3l-1.148.089L111.5,25.258Zm-11.039-.883L97.988,32.41h5.122l-2.65-8.035Z" fill="#595959" fill-rule="evenodd"/>
      <path id="Path_7" data-name="Path 7" d="M89.511,32.411H88.187v3.8c0,1.943.53,2.384,2.031,2.384V39.3h-6.8v-.707c1.413,0,1.942-.53,1.942-2.473V23.669c0-1.943-.529-2.3-1.942-2.3v-.618h5.122c4.944,0,7.859,1.5,7.859,5.563,0,4.238-3.533,6.093-6.889,6.093Zm-.883-10.42h-.441v9.095h.795c2.914,0,4.415-1.325,4.415-4.68s-1.326-4.415-4.769-4.415Z" fill="#595959" fill-rule="evenodd"/>
      <path id="Path_8" data-name="Path 8" d="M58.693,35.767a5.471,5.471,0,0,1-5.651-5.828,5.62,5.62,0,0,1,5.651-5.828,5.551,5.551,0,0,1,5.563,5.828,5.658,5.658,0,0,1-5.563,5.828Zm0-10.6c-2.3,0-3.091,2.208-3.091,4.769,0,2.384.707,4.769,3.091,4.769,2.3,0,3-2.384,3-4.857,0-2.385-.883-4.681-3-4.681Z" fill="#595959" fill-rule="evenodd"/>
      <path id="Path_9" data-name="Path 9" d="M19.84,34.707v-.619c.883,0,1.059-.265,1.059-.53a2.622,2.622,0,0,0-.176-.883s-.177-.707-.354-1.236H16.925l-.353,1.148a2.611,2.611,0,0,0-.177.883c0,.353.354.618.883.618v.619H13.834v-.619c.883,0,1.236-.265,1.589-1.236l2.649-7.947a.809.809,0,0,0-.883-.618v-.618h2.826c2.3,6.711,2.914,8.478,2.914,8.478.441,1.5.883,1.942,1.59,1.942v.619H19.84ZM18.6,26.141,17.28,30.468h2.737L18.6,26.141Z" fill="#595959" fill-rule="evenodd"/>
    </g>
  </g>
</svg>
