<svg xmlns="http://www.w3.org/2000/svg" width="121.657" height="30.486" viewBox="0 0 121.657 30.486">
  <g id="forbes-logo" transform="translate(-9.647 -13.712)">
    <g id="Group_2" data-name="Group 2">
      <path id="Path_10" data-name="Path 10" d="M83.76,22.381a9.97,9.97,0,0,0-5.035,1.259c0-4.475,0-8.529.14-9.928L69.5,15.39v.839l.979.14c1.259.279,1.679.978,1.958,2.657.28,3.355.14,21.254,0,24.191a36.273,36.273,0,0,0,7.831.98c7.412,0,11.886-4.615,11.886-11.886,0-5.734-3.635-9.93-8.39-9.93ZM80.544,42.658a6.308,6.308,0,0,1-1.679-.139c-.14-1.958-.279-10.208-.14-17.479a6.19,6.19,0,0,1,2.1-.42c3.076,0,4.754,3.635,4.754,8.11,0,5.594-2.1,9.928-5.033,9.928Z" fill="#595959" fill-rule="evenodd"/>
      <path id="Path_11" data-name="Path 11" d="M34.258,14.272H9.647V15.53l1.4.14c1.818.279,2.517,1.4,2.8,4.056a162.238,162.238,0,0,1,0,18.458c-.279,2.657-.978,3.916-2.8,4.055l-1.4.28v1.119h15.8V42.519l-1.678-.28c-1.818-.139-2.518-1.4-2.8-4.055-.141-1.819-.28-4.755-.28-8.39l3.356.14c2.1,0,3.076,1.678,3.5,4.055H28.8V24.062H27.546c-.42,2.377-1.4,4.054-3.5,4.054l-3.356.139c0-4.753.14-9.228.28-11.885h4.893c3.777,0,5.734,2.376,7.132,6.572l1.4-.419-.139-8.251Z" fill="#595959" fill-rule="evenodd"/>
      <path id="Path_12" data-name="Path 12" d="M42.229,22.1c6.992,0,10.488,4.754,10.488,11.046,0,6.014-3.916,11.048-10.908,11.048S31.322,39.442,31.322,33.149c0-6.012,3.915-11.046,10.907-11.046Zm-.42,1.4c-3.076,0-3.915,4.194-3.915,9.647,0,5.313,1.4,9.649,4.2,9.649,3.215,0,4.055-4.2,4.055-9.649,0-5.313-1.4-9.647-4.336-9.647Z" fill="#595959" fill-rule="evenodd"/>
      <path id="Path_13" data-name="Path 13" d="M93.969,33.289c0-5.733,3.635-11.187,10.767-11.187,5.873,0,8.67,4.335,8.67,10.068H100.4c-.139,5.173,2.378,8.95,7.413,8.95a7.194,7.194,0,0,0,4.754-1.538l.559.7a10.475,10.475,0,0,1-8.39,3.917c-6.294,0-10.767-4.474-10.767-10.908Zm6.431-2.655,6.573-.141c0-2.8-.42-6.991-2.8-6.991s-3.636,3.914-3.776,7.132Z" fill="#595959" fill-rule="evenodd"/>
      <path id="Path_14" data-name="Path 14" d="M130.045,23.223a17.072,17.072,0,0,0-6.432-1.12c-5.174,0-8.39,3.075-8.39,6.712s2.376,5.173,5.734,6.293c3.5,1.257,4.474,2.236,4.474,3.914a3.239,3.239,0,0,1-3.5,3.217c-2.657,0-4.615-1.538-6.153-5.733l-.979.28.139,6.153a22.087,22.087,0,0,0,7.413,1.259c5.453,0,8.949-2.8,8.949-7.132,0-2.937-1.539-4.614-5.174-6.014-3.916-1.538-5.314-2.515-5.314-4.334a2.9,2.9,0,0,1,2.937-3.077c2.518,0,4.2,1.538,5.454,5.313l.979-.279-.141-5.452Z" fill="#595959" fill-rule="evenodd"/>
      <path id="Path_15" data-name="Path 15" d="M70.895,22.663c-2.377-1.4-6.572-.7-8.81,4.334l.14-4.894-9.37,1.819v.838l.979.14c1.259.141,1.817.839,1.958,2.657a117.49,117.49,0,0,1,0,12.167c-.14,1.677-.7,2.516-1.958,2.656l-.979.14v1.119h13V42.52l-1.678-.14c-1.4-.14-1.817-.979-1.958-2.656a100.137,100.137,0,0,1-.14-11.327c.7-.979,3.776-1.819,6.572,0l2.239-5.734Z" fill="#595959" fill-rule="evenodd"/>
    </g>
  </g>
</svg>
