<svg xmlns="http://www.w3.org/2000/svg" width="135.022" height="17.53" viewBox="0 0 135.022 17.53">
  <g id="techcrunch-logo" transform="translate(-3.97 -20.506)">
    <g id="Group_3" data-name="Group 3">
      <path id="Path_16" data-name="Path 16" d="M13.208,25.2v12.58h-4.6V25.2H3.97v-4H17.852v4Z" fill="#595959"/>
      <path id="Path_17" data-name="Path 17" d="M28.579,32.778h-7.3a1.964,1.964,0,0,0,2.108,1.989,6.488,6.488,0,0,0,3.222-.877l1.634,2.725a9.65,9.65,0,0,1-5.069,1.421c-3.743,0-5.8-2.654-5.8-6.468,0-4.287,2.416-6.49,5.685-6.49,3.412,0,5.544,2.25,5.544,6.87A7.732,7.732,0,0,1,28.579,32.778Zm-5.637-4.549c-.972,0-1.516.664-1.658,1.9h3.554C24.623,28.868,24.2,28.229,22.942,28.229Z" fill="#595959"/>
      <path id="Path_18" data-name="Path 18" d="M36.512,38.036c-3.647,0-5.827-2.321-5.827-6.514,0-3.814,1.942-6.444,5.922-6.444a5.209,5.209,0,0,1,4.786,2.843l-2.938,2.227c-.592-1.09-1-1.611-1.918-1.611-1.091,0-1.635,1.09-1.635,3.056s.592,2.985,1.753,2.985c.805,0,1.374-.45,2.156-1.611l2.7,2.108C40.066,37.207,38.715,38.036,36.512,38.036Z" fill="#595959"/>
      <path id="Path_19" data-name="Path 19" d="M51.055,37.776V30.715c0-1.611-.545-2.037-1.421-2.037-.9,0-1.446.426-1.446,1.99v7.108H43.924V22.212l4.264-1.706v5.662a4.759,4.759,0,0,1,3.127-1.09c2.724,0,4.028,1.824,4.028,5.093v7.6Z" fill="#595959"/>
      <path id="Path_20" data-name="Path 20" d="M65.549,38.036c-4.927,0-7.557-3.648-7.557-8.552,0-5.33,3.127-8.552,7.58-8.552,4.075,0,5.687,1.753,6.823,4.88l-4.168,1.635c-.593-1.54-1.162-2.512-2.678-2.512-1.918,0-2.748,1.919-2.748,4.549,0,2.535.805,4.548,2.795,4.548,1.444,0,2.061-.781,2.96-2.345l3.885,2.061A7.129,7.129,0,0,1,65.549,38.036Z" fill="#595959"/>
      <path id="Path_21" data-name="Path 21" d="M82.931,30.029a2.682,2.682,0,0,0-1.989-1.042c-1.043,0-1.683.5-1.683,2.013v6.776H75V25.339h4.264v.9a3.814,3.814,0,0,1,4.667-.64Z" fill="#595959"/>
      <path id="Path_22" data-name="Path 22" d="M93.068,37.776v-.831a4.69,4.69,0,0,1-3.1,1.091c-2.724,0-4.027-1.824-4.027-5.094v-7.6h4.288V32.4c0,1.61.544,2.037,1.421,2.037s1.421-.427,1.421-1.991V25.338h4.288V37.776Z" fill="#595959"/>
      <path id="Path_23" data-name="Path 23" d="M107.563,37.776V30.715c0-1.611-.545-2.037-1.421-2.037-.9,0-1.446.426-1.446,1.99v7.108h-4.264V25.339H104.7v.829a4.759,4.759,0,0,1,3.127-1.09c2.725,0,4.028,1.824,4.028,5.093v7.6Z" fill="#595959"/>
      <path id="Path_24" data-name="Path 24" d="M120.161,38.036c-3.647,0-5.827-2.321-5.827-6.514,0-3.814,1.943-6.444,5.922-6.444a5.208,5.208,0,0,1,4.786,2.843L122.1,30.148c-.592-1.09-1-1.611-1.918-1.611-1.09,0-1.635,1.09-1.635,3.056s.592,2.985,1.753,2.985c.805,0,1.374-.45,2.155-1.611l2.7,2.108C123.715,37.207,122.364,38.036,120.161,38.036Z" fill="#595959"/>
      <path id="Path_25" data-name="Path 25" d="M134.7,37.776V30.715c0-1.611-.545-2.037-1.421-2.037-.9,0-1.446.426-1.446,1.99v7.108h-4.264V22.212l4.264-1.706v5.662a4.759,4.759,0,0,1,3.127-1.09c2.725,0,4.028,1.824,4.028,5.093v7.6Z" fill="#595959"/>
    </g>
  </g>
</svg>
