<svg xmlns="http://www.w3.org/2000/svg" width="17.999" height="14.626" viewBox="0 0 17.999 14.626">
  <path id="dark-twitter-icon" d="M18,3.731a7.4,7.4,0,0,1-2.121.581A3.708,3.708,0,0,0,17.5,2.27a7.364,7.364,0,0,1-2.344.9A3.7,3.7,0,0,0,8.865,6.534,10.49,10.49,0,0,1,1.253,2.676,3.7,3.7,0,0,0,2.4,7.605,3.685,3.685,0,0,1,.723,7.144V7.19a3.7,3.7,0,0,0,2.962,3.621,3.714,3.714,0,0,1-.973.129,3.613,3.613,0,0,1-.694-.066,3.7,3.7,0,0,0,3.449,2.565A7.4,7.4,0,0,1,.882,15.02,7.313,7.313,0,0,1,0,14.967a10.449,10.449,0,0,0,5.661,1.659A10.435,10.435,0,0,0,16.169,6.12c0-.161,0-.321-.012-.479A7.456,7.456,0,0,0,18,3.731Z" transform="translate(-0.001 -2)" fill="#5e5f61"/>
</svg>
