<svg xmlns="http://www.w3.org/2000/svg" width="115.199" height="29.52" viewBox="0 0 115.199 29.52">
  <g id="zdnet-logo" transform="translate(-13.469 -15.305)">
    <path id="Path_33" data-name="Path 33" d="M54.8,15.673h-12.8V37.716H26.629L41.515,15.673h-22.6L14.748,21.9H28.432L13.469,43.939h30.5l5.374-7.924V21.9H53.45c4.722,0,8.061,2.85,8.061,7.911,0,5.51-3.75,7.91-8.136,7.91H50.127v6.223H54.8a14.135,14.135,0,1,0,0-28.266ZM86.335,27.13c.043,2,.252,5.7.461,7.952a56.177,56.177,0,0,0-3.166-8.2L78.093,15.305H71.64V44.242h5.618l-.167-12.367c-.042-2.414-.082-5.828-.292-8.2.543,1.79,2.293,5.87,3.915,9.492l4.955,11.075h6.08V15.306h-5.54Zm17.7-4.662a8.376,8.376,0,0,0-6.7,2.873c-1.874,2.082-2.666,4.621-2.666,8.451,0,6.7,3.958,11.033,10.073,11.033a12.234,12.234,0,0,0,8.035-2.955l-2.166-3.331a8.327,8.327,0,0,1-5.409,2.122c-2.875,0-4.5-1.873-4.5-5.165v-.165h12.323v-1.29c0-4.454-.876-7.329-2.833-9.326A8.712,8.712,0,0,0,104.039,22.468Zm3.2,8.784h-6.452v-.083c0-2.957,1.21-4.621,3.329-4.621a2.7,2.7,0,0,1,2.459,1.249,5.478,5.478,0,0,1,.664,3.2Zm20.715,9.2a7.237,7.237,0,0,1-2,.417c-1.913,0-2.414-.709-2.414-3.415v-10.7h3.582l1.412-3.831h-4.994c0-2.164.125-4.5.33-6.453l-5.66,1.417a37.112,37.112,0,0,0-.207,5.037h-2.123v3.831h2.123V38.33a7.84,7.84,0,0,0,.373,3.29c.667,1.871,2.918,3.12,5.746,3.12a11.727,11.727,0,0,0,4.54-.956Z" fill="#595959" fill-rule="evenodd"/>
  </g>
</svg>
